<svg width="343" height="398" viewBox="0 0 343 398" fill="none" xmlns="http://www.w3.org/2000/svg">
  <path d="M226.564 368.849C212.323 377.241 198.362 385.464 184.414 393.71C175.856 398.769 167.31 398.799 158.748 393.743C110.366 365.178 62.0032 336.579 13.5856 308.077C4.36674 302.65 0.0118274 294.754 0.024494 283.911C0.0906801 227.241 0.075234 170.571 3.64609e-05 113.901C-0.0145301 102.922 4.33512 94.9352 13.7612 89.3989C62.3324 60.8711 110.8 32.1599 159.334 3.56565C167.429 -1.20354 175.738 -1.18088 183.822 3.58778C232.462 32.2805 281.053 61.0619 329.699 89.7452C338.597 94.9921 342.906 102.604 342.891 113.133C342.81 170.408 342.814 227.683 342.868 284.957C342.878 295.337 338.449 302.875 329.779 307.989C295.471 328.226 261.16 348.457 226.564 368.849ZM114.077 135.083C114.077 134.026 114.223 132.942 114.051 131.914C113.162 126.583 115.323 123.557 120.003 120.891C138.595 110.303 156.946 99.271 175.333 88.3091C180.482 85.2393 181.986 80.1781 179.439 75.6892C176.888 71.1938 171.824 69.9518 166.737 72.9365C145.457 85.4228 124.232 98.0078 102.989 110.561C98.8045 113.034 96.6915 116.61 96.6962 121.694C96.7486 179.118 96.7459 236.542 96.703 293.965C96.6992 298.966 98.5087 302.696 102.781 305.209C112.773 311.088 122.732 317.028 132.721 322.912C136.63 325.215 140.617 325.263 144.535 322.949C165.779 310.399 187.017 297.838 208.238 285.248C211.653 283.222 213.814 280.192 213.839 276.06C213.916 263.066 213.979 250.069 213.811 237.076C213.744 231.904 209.666 228.476 204.672 228.762C199.704 229.045 196.565 232.686 196.495 238.714C196.382 248.384 196.4 258.057 196.515 267.727C196.546 270.398 195.91 272.164 193.461 273.591C175.997 283.767 158.646 294.145 141.154 304.269C139.836 305.032 137.393 304.944 136.01 304.203C130.254 301.121 124.833 297.374 119.031 294.394C115.212 292.432 113.958 289.95 113.972 285.585C114.131 235.718 114.077 185.85 114.077 135.083ZM212.876 133.347C209.247 130.994 205.319 129.139 201.211 131.475C189.72 138.012 178.293 144.677 167.037 151.624C162.989 154.122 162.248 159.312 164.535 163.247C166.833 167.201 171.359 168.587 175.753 166.644C176.699 166.226 177.607 165.704 178.502 165.175C186.053 160.716 193.7 156.415 201.091 151.695C204.191 149.715 206.467 149.879 209.498 151.804C216.902 156.506 224.536 160.83 232.107 165.254C240.67 170.258 247.199 166.519 247.264 156.536C247.337 145.354 247.174 134.17 247.357 122.991C247.454 117.069 245.184 112.944 240.136 110.05C230.855 104.728 221.619 99.3157 212.51 93.6957C207.532 90.6244 203.031 90.6488 197.993 93.6748C178.241 105.539 158.462 117.364 138.472 128.801C132.244 132.364 129.873 136.969 129.902 144.135C130.072 186.897 129.943 229.661 129.924 272.424C129.924 274.085 129.899 275.76 130.091 277.402C130.857 283.947 136.761 287.779 142.358 284.688C153.927 278.3 165.279 271.49 176.559 264.578C180.804 261.976 181.714 256.757 179.345 252.637C176.998 248.555 172.205 247.027 167.793 249.401C162.434 252.284 157.279 255.561 152.012 258.625C150.682 259.399 149.262 260.011 147.702 260.787C147.503 259.699 147.353 259.261 147.353 258.823C147.335 221.651 147.297 184.478 147.437 147.307C147.443 145.755 148.74 143.56 150.068 142.76C167.639 132.17 185.303 121.741 203.024 111.417C204.147 110.763 206.233 110.751 207.367 111.383C214.242 115.215 220.986 119.294 227.727 123.372C228.54 123.863 229.623 124.824 229.646 125.596C229.81 131.205 229.734 136.822 229.734 143.23C223.665 139.673 218.555 136.679 212.876 133.347ZM187.737 198.18C181.471 201.895 175.118 205.466 168.99 209.405C166.976 210.7 164.988 212.671 163.978 214.819C162.366 218.248 163.401 221.669 166.192 224.27C169.453 227.31 173.067 227.428 176.818 225.215C185.269 220.231 193.75 215.3 202.134 210.202C204.284 208.896 205.961 208.711 208.195 210.106C214.374 213.966 220.805 217.408 226.921 221.363C228.329 222.273 229.68 224.567 229.695 226.237C229.882 246.79 229.773 267.346 229.869 287.9C229.881 290.523 229.003 291.982 226.787 293.247C218.269 298.108 209.808 303.08 201.423 308.177C196.604 311.107 195.258 316.143 197.773 320.571C200.249 324.93 205.263 326.273 210.11 323.48C220.541 317.47 230.863 311.262 241.234 305.144C245.322 302.733 247.288 299.109 247.287 294.311C247.283 269.524 247.291 244.737 247.283 219.951C247.281 215.17 245.296 211.541 241.199 209.13C231.206 203.248 221.221 197.351 211.248 191.432C207.32 189.101 203.392 189.03 199.45 191.297C195.714 193.447 192.013 195.66 187.737 198.18Z" fill="#232323"/>
</svg>
